<svg width="400" height="48" viewBox="0 0 400 48" fill="none" xmlns="http://www.w3.org/2000/svg">
<path d="M0.642194 46.7042H8.43886C9.13725 46.7042 9.71903 46.6464 10.1264 46.299C10.8826 45.6047 11.6973 44.5631 11.6973 44.2157C11.6973 44.0422 11.6391 43.8684 11.2318 43.8684L3.784 44.0422L6.63507 42.0746C8.43886 40.8013 9.48613 39.528 10.9407 36.9817C15.9448 28.2428 20.8323 16.784 25.6616 8.62407C26.9999 6.36696 27.8145 4.74666 30.0254 3.24202H44.2807C44.9791 3.24202 45.5609 3.18419 45.9682 2.83687C46.7244 2.14223 47.5391 1.33223 47.5391 0.811407C47.5391 0.579757 47.481 0.40625 46.841 0.40625H10.3008C8.90435 0.40625 7.91523 0.695423 7.10055 1.33223C5.18045 2.8947 3.43512 4.86233 1.80576 6.65645L2.27124 7.0616C4.65682 4.80449 6.11143 3.29986 10.3008 3.24202H28.7455L27.1162 4.28366C24.6143 5.90397 22.8686 7.6981 21.3559 10.3025C16.4684 18.6938 11.5228 30.2686 6.40247 39.1807C4.88972 41.843 4.07504 42.9424 2.73673 43.9262L1.51503 44.8522C0.758494 45.4312 0.00195312 45.952 0.00195312 46.299C0.00195312 46.5307 0.0604138 46.7042 0.642194 46.7042Z" fill="#2F342E"/>
<path d="M18.3184 46.7031H20.5296C20.8203 46.7031 21.0532 46.5296 21.2277 46.2401L24.195 40.6845C27.6863 35.5338 32.2246 30.2674 36.414 26.3319C40.5452 22.4545 43.9199 19.8504 46.2473 19.8504C47.469 19.8504 47.9345 20.6025 47.9345 21.4707C47.9345 25.7532 37.1705 38.7748 37.1705 44.1568C37.1705 45.4301 37.8686 47.1082 40.0216 47.1082C41.7669 47.1082 45.3745 44.8511 48.9818 41.6683L48.5744 41.0894C45.7234 43.5781 43.978 44.562 42.6979 44.562C41.7087 44.562 41.0688 44.0411 41.0688 43.0573C41.0688 38.3696 51.7166 25.2902 51.7166 20.2555C51.7166 19.0401 51.1348 17.3616 48.9818 17.3616C46.2473 17.3616 41.2433 20.7763 36.0066 25.8111C32.7482 28.8785 29.4316 32.5242 26.5224 36.286L37.8686 15.047C42.1161 7.11833 45.6071 3.7039 51.8328 2.02545C57.4768 3.58792 59.6298 4.1669 61.4333 4.1669C63.7026 4.1669 65.332 2.08329 65.332 1.15731C65.332 0.231334 63.0627 0 59.9787 0C47.8182 0 38.6832 7.63916 32.923 18.2876L17.9111 46.0088C17.7367 46.4139 17.9111 46.7031 18.3184 46.7031Z" fill="#2F342E"/>
<path d="M58.2757 47.1064C61.0105 47.1064 65.8979 45.4283 71.309 40.2776L70.9017 39.8146C66.189 43.9815 62.7558 44.618 60.9523 44.618C57.1703 44.618 55.7738 42.3031 55.5991 39.6408C73.5783 28.4715 78.175 23.8416 78.175 20.3694C78.175 18.4018 76.5457 17.2441 73.5783 17.2441C64.6759 17.2441 51.6426 30.034 51.6426 40.4511C51.6426 44.3863 53.97 47.1064 58.2757 47.1064ZM55.5991 38.9465C55.6575 31.3073 62.0577 19.2117 70.8435 19.2117C72.4729 19.2117 74.1601 19.9064 74.1601 21.9897C74.1601 26.7352 67.7017 31.423 55.5991 38.9465Z" fill="#2F342E"/>
<path d="M110.719 47.278C117.235 47.278 122.763 45.6574 125.498 44.1528L126.429 36.6293L125.789 36.5715C123.519 42.8217 118.632 46.1204 112.348 46.1204C100.246 46.1204 93.6125 35.7033 93.6706 24.8233C93.6706 13.0172 100.827 6.88268 110.079 6.88268C117.003 6.88268 122.53 10.4131 124.799 15.6795L125.381 15.5638L125.149 8.6768C122.879 7.23 117.061 5.7832 112.057 5.7832C98.3837 5.7832 88.7832 14.927 88.7832 27.2539C88.7832 39.8702 97.3361 47.278 110.719 47.278Z" fill="#2F342E"/>
<path d="M129.967 46.7002H139.393V45.948C137.589 45.4272 137.065 44.0961 137.065 39.3505V13.5391C137.065 8.79357 137.589 7.46275 139.393 6.94193V6.18945H129.967V6.94193C131.712 7.46275 132.294 8.79357 132.294 13.5391V39.3505C132.294 44.0961 131.712 45.4272 129.967 45.948V46.7002Z" fill="#2F342E"/>
<path d="M173.066 47.1053C174.232 47.1053 175.745 46.9897 176.617 46.7002V46.0059C176.327 46.0637 176.036 46.0637 175.686 46.0637C173.707 46.0637 172.544 44.1539 169.749 37.2091C166.958 30.0907 165.852 26.5606 158.695 25.6347C166.259 24.7665 170.215 20.6575 170.215 15.2176C170.215 10.0669 166.725 6.18945 154.914 6.18945H143.451V6.94193C145.255 7.46275 145.778 8.79357 145.778 13.5391V39.3505C145.778 44.0961 145.255 45.4272 143.451 45.948V46.7002H152.877V45.948C151.073 45.4272 150.549 44.0961 150.549 39.3505V25.8082H154.273C161.256 25.8082 161.721 29.8594 165.096 37.8459C167.656 43.8644 168.586 47.1053 173.066 47.1053ZM150.549 24.94V7.17327C151.48 7.11543 152.411 7.0576 153.284 7.0576C161.896 7.0576 165.27 11.398 165.27 16.5487C165.27 21.4678 162.128 24.94 155.437 24.94H150.549Z" fill="#2F342E"/>
<path d="M199.179 47.278C205.693 47.278 211.221 45.6574 213.956 44.1528L214.888 36.6293L214.247 36.5715C211.977 42.8217 207.091 46.1204 200.807 46.1204C188.706 46.1204 182.072 35.7033 182.128 24.8233C182.128 13.0172 189.287 6.88268 198.538 6.88268C205.462 6.88268 210.989 10.4131 213.259 15.6795L213.84 15.5638L213.606 8.6768C211.339 7.23 205.518 5.7832 200.517 5.7832C186.843 5.7832 177.242 14.927 177.242 27.2539C177.242 39.8702 185.795 47.278 199.179 47.278Z" fill="#2F342E"/>
<path d="M218.42 46.7002H245.474L245.883 40.1608L245.242 40.0448C243.207 44.3852 240.647 45.7742 235.061 45.7742H228.136C226.448 45.7742 225.516 44.8482 225.516 43.1701V13.5391C225.516 8.79357 226.042 7.46275 227.845 6.94193V6.18945H218.42V6.94193C220.164 7.46275 220.746 8.79357 220.746 13.5391V39.3505C220.746 44.0961 220.164 45.4272 218.42 45.948V46.7002Z" fill="#2F342E"/>
<path d="M248.135 46.7002H276.821L277.286 39.0032L276.645 38.8875C274.551 44.2696 271.003 45.832 265.416 45.832H257.851C256.163 45.832 255.234 44.9064 255.234 43.2279V25.4612H262.681C269.315 25.4612 271.003 26.792 271.7 29.3964H272.397V20.6575H271.7C271.003 23.2619 269.315 24.593 262.681 24.593H255.234V7.0576H263.787C269.721 7.0576 273.153 8.79357 275.192 13.8864L275.829 13.7129L275.192 6.18945H248.135V6.94193C249.879 7.46275 250.464 8.79357 250.464 13.5391V39.3505C250.464 44.0961 249.879 45.4272 248.135 45.948V46.7002Z" fill="#2F342E"/>
<path d="M295.548 47.106C298.283 47.106 303.344 45.3697 308.756 40.2193L308.349 39.6985C303.635 43.8651 300.087 44.7332 298.108 44.7332C294.5 44.7332 292.697 42.2448 292.697 38.6566C292.697 31.5961 299.39 20.3111 306.02 19.0378C310.21 20.7741 312.188 21.5841 313.936 21.5841C315.39 21.5841 316.903 20.2533 316.903 19.0378C316.903 18.054 313.992 17.3594 310.969 17.3594C299.681 17.3594 288.914 30.4387 288.914 39.8142C288.914 44.2124 291.534 47.106 295.548 47.106Z" fill="#2F342E"/>
<path d="M312.349 47.1082C314.094 47.1082 317.701 44.7355 321.309 41.6683L320.902 41.0894C318.051 43.5781 316.304 44.562 315.025 44.562C314.034 44.562 313.278 44.0411 313.278 42.8257C313.278 41.2632 313.918 38.6588 316.654 33.624L326.776 15.047C331.316 6.71318 335.039 3.47226 340.569 1.96762C345.862 3.35659 348.656 4.22472 350.517 4.22472C352.436 4.22472 354.183 2.14112 354.183 1.21515C354.183 0.347316 352.261 0 349.354 0C335.623 0 327.767 7.63916 321.831 18.2876L313.337 33.5084C311.183 37.3279 309.498 41.1475 309.498 43.8095C309.498 45.4301 310.602 47.1082 312.349 47.1082Z" fill="#2F342E"/>
<path d="M345.319 47.106C347.067 47.106 350.79 44.907 354.279 41.6661L353.872 41.0872C351.021 43.5759 349.392 44.3859 348.17 44.3859C347.123 44.3859 346.541 43.7494 346.541 42.6499C346.541 41.2031 347.704 37.3836 350.79 31.712C353.406 26.9665 356.142 22.5101 358.352 19.0378C358.643 18.6327 358.471 18.3435 358.005 18.3435H355.792C355.501 18.3435 355.27 18.4592 355.095 18.6905L352.068 23.3204C348.345 28.7024 343.806 33.9688 339.851 38.0779C335.834 42.187 332.752 44.7332 330.423 44.7332C328.738 44.7332 328.388 43.6338 328.388 42.7078C328.388 38.946 339.035 25.1724 339.035 20.3111C339.035 19.0378 338.338 17.3594 336.184 17.3594C334.44 17.3594 330.832 19.7322 327.225 22.7996L327.631 23.3782C330.482 20.8898 332.111 20.1951 333.393 20.1951C334.381 20.1951 334.962 20.7163 334.962 21.8158C334.962 26.6192 324.721 38.8304 324.721 43.5759C324.721 45.7749 326.293 47.106 328.328 47.106C331.179 47.106 335.487 43.8073 340.317 38.6566C343.049 35.763 345.96 32.4064 348.811 28.8184C345.554 34.49 342.643 40.6245 342.643 44.0389C342.643 45.3119 343.168 47.106 345.319 47.106Z" fill="#2F342E"/>
<path d="M363.866 47.1082C374.804 47.1082 386.731 33.2189 386.731 21.6445C386.731 19.6187 385.859 17.3616 383.473 17.3616C381.379 17.3616 377.421 19.966 372.941 24.0173C369.334 27.3157 365.32 31.4248 361.771 35.7652L372.535 15.047C376.668 7.0605 380.447 3.93525 386.499 1.96762C391.445 3.29876 394.703 4.1669 396.566 4.1669C398.485 4.1669 399.998 2.08329 399.998 1.21515C399.998 0.347316 398.079 0 394.646 0C382.485 0 373.407 7.40781 367.123 19.2717L358.048 36.402C355.428 41.3789 358.164 47.1082 363.866 47.1082ZM360.956 37.8488C364.854 32.8716 369.452 27.9525 373.407 24.5381C376.724 21.6445 379.516 19.9082 380.972 19.9082C382.195 19.9082 383.067 20.7763 383.067 23.2648C383.067 31.5983 376.258 45.5458 366.367 45.5458C363.691 45.5458 360.083 43.4043 360.956 37.8488Z" fill="#2F342E"/>
<path d="M383.344 47.5162C384.51 47.5162 386.604 45.3747 386.604 43.8701C386.604 42.8284 385.438 41.6133 384.566 41.6133C383.112 41.6133 381.074 43.8122 381.074 45.3747C381.074 46.5902 382.647 47.5162 383.344 47.5162Z" fill="#2F342E"/>
</svg>
